<svg xmlns="http://www.w3.org/2000/svg" viewBox="0 0 109.04 62.21"><title>Asset 1</title><g id="Layer_2" data-name="Layer 2"><g id="Layer_1-2" data-name="Layer 1"><path d="M109,9.46l-.59.19-.79.79a.57.57,0,0,1-.39.2v.19h-.4V11l-.49.49a1.59,1.59,0,0,1-.59.4,1.84,1.84,0,0,1-.49.1h-2.17a3.34,3.34,0,0,0-1-.3,5.55,5.55,0,0,0-.79-.1h-.59a11.19,11.19,0,0,0-2,.4c-1.19.39-2,.19-2.56-.59a9.33,9.33,0,0,1-.6-1c-1.44-.13-3.08-.33-4.92-.59h-.39a7.5,7.5,0,0,1-1.09-.1,7.5,7.5,0,0,0-1.08-.1,5.39,5.39,0,0,1-.79-.1,6.69,6.69,0,0,0-1-.09,4.32,4.32,0,0,1-1.08-.2,4.32,4.32,0,0,0-1.08-.2c-.92-.13-2-.29-3.15-.49a20.24,20.24,0,0,0-2.17-.3,8.17,8.17,0,0,1-1.38-.19,7.6,7.6,0,0,0-1.38-.2c-.52-.13-3-.33-7.48-.59-.79-.13-2.07-.27-3.85-.39s-3.12-.27-4-.4c-.66,0-2-.1-4-.29s-3.58-.37-4.63-.5h-2a5.78,5.78,0,0,1-1-.1,6.55,6.55,0,0,0-.79-.09H47.18a2.19,2.19,0,0,1-1-.2H44.82c-1.84-.13-3.29-.27-4.34-.4v.2l-1.37-.2q-5.32-.39-14-.39H11.92c-.39,0-1.05,0-2,.1s-1.51.1-1.77.1-1,0-1.78.1S5,4.92,4.63,4.92H1.87l-1-.19H.49L.1,4.14C0,3.87,0,3.74.1,3.74s.26-.1.39-.29A1.38,1.38,0,0,1,1.08,3v-.2l.2-.2h.39A28.6,28.6,0,0,1,4.83,1C6.67.72,9.09.46,12.12.2q1.37,0,9.26-.2H26.1q2.37,0,6.7.1c2.89.06,4.66.1,5.32.1h2.56Q47,.4,58.81,1.38q1.36,0,8.66,1h.79a1.79,1.79,0,0,0,.79-.19h.59c1,.13,2.3.26,3.74.39.53.13.89.23,1.09.3a4.1,4.1,0,0,0,1.08.1h.39a15.78,15.78,0,0,1,2,.19c.92.13,1.71.26,2.37.4a3.21,3.21,0,0,1,1,.19h.2v.2a10.67,10.67,0,0,1,3.35.2q3.73.59,7.29,1h.59a.81.81,0,0,1,.59.2h1a4.23,4.23,0,0,1,.88.1,5,5,0,0,0,.69.1,12.36,12.36,0,0,0,3,.39h2.36a10.79,10.79,0,0,1,1.77.2h.4V6.3h.19v0h.2a.61.61,0,0,1,.4.2h.59a.83.83,0,0,0,.78,0h.4l.19.2h.2a.18.18,0,0,1,.2-.2.18.18,0,0,1,.2-.2v.4a.83.83,0,0,1-.6.2,2,2,0,0,1,.79.39,1.54,1.54,0,0,0,.59.2c.13,0,.13.19,0,.59l.2.39.4.2v.19A1.39,1.39,0,0,1,109,9.46Zm-4.33-3V6.11l-1.19.19h.6c.12,0,.12.07,0,.2C104.24,6.37,104.44,6.37,104.71,6.5Zm-.79.59h.2c0,.13.12.2.39.2l.2.2V6.7Zm1.77-.19a.77.77,0,0,0-.59-.2A.77.77,0,0,1,105.69,6.9Z"/><path d="M109,34.46l-.59.19-.79.79a.57.57,0,0,1-.39.2v.19h-.4V36l-.49.49a1.59,1.59,0,0,1-.59.4,1.84,1.84,0,0,1-.49.1h-2.17a3.34,3.34,0,0,0-1-.3,5.55,5.55,0,0,0-.79-.1h-.59a11.19,11.19,0,0,0-2,.4c-1.19.39-2,.19-2.56-.59a9.33,9.33,0,0,1-.6-1c-1.44-.13-3.08-.33-4.92-.59h-.39a7.5,7.5,0,0,1-1.09-.1,7.5,7.5,0,0,0-1.08-.1,5.39,5.39,0,0,1-.79-.1,6.69,6.69,0,0,0-1-.09,4.32,4.32,0,0,1-1.08-.2,4.32,4.32,0,0,0-1.08-.2c-.92-.13-2-.29-3.15-.49a20.24,20.24,0,0,0-2.17-.3,8.17,8.17,0,0,1-1.38-.19,7.6,7.6,0,0,0-1.38-.2c-.52-.13-3-.33-7.48-.59-.79-.13-2.07-.27-3.85-.39s-3.12-.27-4-.4c-.66,0-2-.1-4-.29s-3.58-.37-4.63-.5h-2a5.78,5.78,0,0,1-1-.1,6.55,6.55,0,0,0-.79-.09H47.18a2.19,2.19,0,0,1-1-.2H44.82c-1.84-.13-3.29-.27-4.34-.4v.2l-1.37-.2q-5.32-.39-14-.39H11.92c-.39,0-1.05,0-2,.1s-1.51.1-1.77.1-1,0-1.78.1-1.38.09-1.77.09H1.87l-1-.19H.49L.1,29.14c-.13-.27-.13-.4,0-.4s.26-.1.39-.29A1.38,1.38,0,0,1,1.08,28v-.2l.2-.2h.39A28.6,28.6,0,0,1,4.83,26c1.84-.26,4.26-.52,7.29-.78q1.37,0,9.26-.2H26.1q2.37,0,6.7.1c2.89.06,4.66.1,5.32.1h2.56q6.3.19,18.13,1.18,1.36,0,8.66,1h.79a1.79,1.79,0,0,0,.79-.19h.59c1,.13,2.3.26,3.74.39.53.13.89.23,1.09.3a4.1,4.1,0,0,0,1.08.1h.39a15.78,15.78,0,0,1,2,.19c.92.13,1.71.26,2.37.4a3.21,3.21,0,0,1,1,.19h.2v.2a10.67,10.67,0,0,1,3.35.2q3.73.59,7.29,1h.59a.81.81,0,0,1,.59.2h1a4.23,4.23,0,0,1,.88.1,5,5,0,0,0,.69.1,12.36,12.36,0,0,0,3,.39h2.36a10.79,10.79,0,0,1,1.77.2h.4v.19h.19v0h.2a.61.61,0,0,1,.4.2h.59a.83.83,0,0,0,.78,0h.4l.19.2h.2a.18.18,0,0,1,.2-.2.18.18,0,0,1,.2-.2v.4a.83.83,0,0,1-.6.2,2,2,0,0,1,.79.39,1.54,1.54,0,0,0,.59.2c.13,0,.13.19,0,.59l.2.39.4.2v.19A1.39,1.39,0,0,1,109,34.46Zm-4.33-3v-.39l-1.19.19h.6c.12,0,.12.07,0,.2C104.24,31.37,104.44,31.37,104.71,31.5Zm-.79.59h.2c0,.13.12.2.39.2l.2.2V31.7Zm1.77-.19a.77.77,0,0,0-.59-.2A.77.77,0,0,1,105.69,31.9Z"/><path d="M109,59.46l-.59.19-.79.79a.57.57,0,0,1-.39.2v.19h-.4V61l-.49.49a1.59,1.59,0,0,1-.59.4,1.84,1.84,0,0,1-.49.1h-2.17a3.34,3.34,0,0,0-1-.3,5.55,5.55,0,0,0-.79-.1h-.59a11.19,11.19,0,0,0-2,.4c-1.19.39-2,.19-2.56-.59a9.33,9.33,0,0,1-.6-1c-1.44-.13-3.08-.33-4.92-.59h-.39a7.5,7.5,0,0,1-1.09-.1,7.5,7.5,0,0,0-1.08-.1,5.39,5.39,0,0,1-.79-.1,6.69,6.69,0,0,0-1-.09,4.32,4.32,0,0,1-1.08-.2,4.32,4.32,0,0,0-1.08-.2c-.92-.13-2-.29-3.15-.49a20.24,20.24,0,0,0-2.17-.3,8.17,8.17,0,0,1-1.38-.19,7.6,7.6,0,0,0-1.38-.2c-.52-.13-3-.33-7.48-.59-.79-.13-2.07-.27-3.85-.39s-3.12-.27-4-.4c-.66,0-2-.1-4-.29s-3.58-.37-4.63-.5h-2a5.78,5.78,0,0,1-1-.1,6.55,6.55,0,0,0-.79-.09H47.18a2.19,2.19,0,0,1-1-.2H44.82c-1.84-.13-3.29-.27-4.34-.4v.2l-1.37-.2q-5.32-.39-14-.39H11.92c-.39,0-1.05,0-2,.1s-1.51.1-1.77.1-1,0-1.78.1-1.38.09-1.77.09H1.87l-1-.19H.49L.1,54.14c-.13-.27-.13-.4,0-.4s.26-.1.39-.29A1.38,1.38,0,0,1,1.08,53v-.2l.2-.2h.39A28.6,28.6,0,0,1,4.83,51c1.84-.26,4.26-.52,7.29-.78q1.37,0,9.26-.2H26.1q2.37,0,6.7.1c2.89.06,4.66.1,5.32.1h2.56q6.3.19,18.13,1.18,1.36,0,8.66,1h.79a1.79,1.79,0,0,0,.79-.19h.59c1,.13,2.3.26,3.74.39.53.13.89.23,1.09.3a4.1,4.1,0,0,0,1.08.1h.39a15.78,15.78,0,0,1,2,.19c.92.13,1.71.26,2.37.4a3.21,3.21,0,0,1,1,.19h.2v.2a10.67,10.67,0,0,1,3.35.2q3.73.59,7.29,1h.59a.81.81,0,0,1,.59.2h1a4.23,4.23,0,0,1,.88.1,5,5,0,0,0,.69.1,12.36,12.36,0,0,0,3,.39h2.36a10.79,10.79,0,0,1,1.77.2h.4v.19h.19v0h.2a.61.61,0,0,1,.4.2h.59a.83.83,0,0,0,.78,0h.4l.19.2h.2a.18.18,0,0,1,.2-.2.18.18,0,0,1,.2-.2v.4a.83.83,0,0,1-.6.2,2,2,0,0,1,.79.39,1.54,1.54,0,0,0,.59.2c.13,0,.13.19,0,.59l.2.39.4.2v.19A1.39,1.39,0,0,1,109,59.46Zm-4.33-3v-.39l-1.19.19h.6c.12,0,.12.07,0,.2C104.24,56.37,104.44,56.37,104.71,56.5Zm-.79.59h.2c0,.13.12.2.39.2l.2.2V56.7Zm1.77-.19a.77.77,0,0,0-.59-.2A.77.77,0,0,1,105.69,56.9Z"/></g></g></svg>